<?xml version="1.0" encoding="UTF-8"?>
<svg width="551px" height="398px" viewBox="0 0 551 398" version="1.1" xmlns="http://www.w3.org/2000/svg" xmlns:xlink="http://www.w3.org/1999/xlink">
    <!-- Generator: Sketch 54.1 (76490) - https://sketchapp.com -->
    <title>top</title>
    <desc>Created with Sketch.</desc>
    <defs>
        <path d="M0.3614,69.3451143 C0.3614,107.354333 31.1479143,138.167324 69.1213905,138.167324 L69.1213905,138.167324 C107.097514,138.167324 137.882705,107.354333 137.882705,69.3451143 L137.882705,69.3451143 C137.882705,31.337219 107.097514,0.522904762 69.1213905,0.522904762 L69.1213905,0.522904762 C31.1479143,0.522904762 0.3614,31.337219 0.3614,69.3451143 L0.3614,69.3451143 Z" id="path-1"></path>
        <path d="M0.735714286,1.81115385 C5.41714286,10.8329231 7.79142857,20.5111538 7.79142857,30.5777692 L7.79142857,30.5777692 C7.79142857,37.3476923 6.69285714,44.0286923 4.53,50.4350769 L4.53,50.4350769 L6.44571429,50.9790769 C8.66857143,44.3948462 9.79571429,37.5320769 9.79571429,30.5777692 L9.79571429,30.5777692 C9.79571429,20.2365385 7.35714286,10.2928462 2.54714286,1.02261538 L2.54714286,1.02261538 L0.735714286,1.81115385 Z" id="path-3"></path>
        <path d="M0.195945946,0.329355237 C4.17297297,26.6137337 23.4918919,48.707542 49.4054054,56.6068859 L49.4054054,56.6068859 L49.9689189,54.8332396 C24.7472973,47.1403799 5.94594595,25.6395519 2.07162162,0.0540429842 L2.07162162,0.0540429842 L0.195945946,0.329355237 Z" id="path-5"></path>
        <path d="M0.384,8.19285714 L1.8672,9.14714286 C2.9568,6.74285714 3.9492,4.24142857 4.8108,1.70714286 L4.8108,1.70714286 L3.2508,0.952857143 C2.4084,3.41714286 1.4448,5.85285714 0.384,8.19285714 L0.384,8.19285714 Z" id="path-7"></path>
        <path d="M0.0597902098,13.8108839 C0.0597902098,21.4221203 6.32842657,27.6125566 14.0370629,27.6125566 L14.0370629,27.6125566 C21.742972,27.6125566 28.0143357,21.4221203 28.0143357,13.8108839 L28.0143357,13.8108839 C28.0143357,6.19964755 21.742972,0.00786573427 14.0370629,0.00786573427 L14.0370629,0.00786573427 C6.32842657,0.00786573427 0.0597902098,6.19964755 0.0597902098,13.8108839 L0.0597902098,13.8108839 Z M1.97297203,13.8108839 C1.97297203,7.24237483 7.38524476,1.89822937 14.0370629,1.89822937 L14.0370629,1.89822937 C20.6888811,1.89822937 26.0997902,7.24237483 26.0997902,13.8108839 L26.0997902,13.8108839 C26.0997902,20.379393 20.6888811,25.7235385 14.0370629,25.7235385 L14.0370629,25.7235385 C7.38524476,25.7235385 1.97297203,20.379393 1.97297203,13.8108839 L1.97297203,13.8108839 Z" id="path-9"></path>
        <path d="M0.816,34.4066667 C0.816,38.9306667 1.67907692,43.24 3.23784615,47.1906667 L3.23784615,47.1906667 L65.3244615,47.1906667 C66.8871538,43.24 67.7489231,38.9306667 67.7489231,34.4066667 L67.7489231,34.4066667 C67.7489231,15.54 52.7588462,0.253333333 34.2824615,0.253333333 L34.2824615,0.253333333 C15.7956154,0.253333333 0.816,15.54 0.816,34.4066667 L0.816,34.4066667 Z" id="path-11"></path>
        <path d="M0.248266667,9.88633333 C0.248266667,14.7997333 4.22813333,18.7834 9.139,18.7834 L9.139,18.7834 C14.0486,18.7834 18.0284667,14.7997333 18.0284667,9.88633333 L18.0284667,9.88633333 C18.0284667,4.97166667 14.0486,0.986733333 9.139,0.986733333 L9.139,0.986733333 C4.22813333,0.986733333 0.248266667,4.97166667 0.248266667,9.88633333 L0.248266667,9.88633333 Z" id="path-13"></path>
        <path d="M1.7361,7.5492 C-1.6173,13.8564 0.7749,21.6918 7.0767,25.0452 L7.0767,25.0452 C13.3785,28.39995 21.20715,26.0064 24.5592,19.6992 L24.5592,19.6992 C27.9126,13.39065 25.5177,5.55795 19.21455,2.20185 L19.21455,2.20185 C17.28135,1.1718 15.2037,0.68445 13.1571,0.68445 L13.1571,0.68445 C8.532,0.6831 4.05945,3.1752 1.7361,7.5492 L1.7361,7.5492 Z" id="path-15"></path>
        <path d="M0.11475,14.03055 C0.11475,21.1815 5.90625,26.9757 13.0491,26.9757 L13.0491,26.9757 C20.19195,26.9757 25.98345,21.1815 25.98345,14.03055 L25.98345,14.03055 C25.98345,6.88095 20.19195,1.08675 13.0491,1.08675 L13.0491,1.08675 C5.90625,1.08675 0.11475,6.88095 0.11475,14.03055 L0.11475,14.03055 Z" id="path-17"></path>
        <path d="M0.2295,14.03055 C0.2295,21.1815 6.0183,26.9757 13.16385,26.9757 L13.16385,26.9757 C20.30805,26.9757 26.0982,21.1815 26.0982,14.03055 L26.0982,14.03055 C26.0982,6.8796 20.30805,1.08405 13.16385,1.08405 L13.16385,1.08405 C6.0183,1.08405 0.2295,6.8796 0.2295,14.03055 L0.2295,14.03055 Z" id="path-19"></path>
        <path d="M0.814692308,1.08675 L1.42930769,14.03055 L1.45938462,14.6637 C1.78761538,21.5595 7.29169231,26.9757 13.9726923,26.9757 L13.9726923,26.9757 L54.587,26.9757 C61.268,26.9757 66.7720769,21.56085 67.1029231,14.6637 L67.1029231,14.6637 L67.1316923,14.03055 L67.745,1.08675 L0.814692308,1.08675 Z" id="path-21"></path>
        <path d="M0.706153846,8.43592308 C0.706153846,12.7212308 4.17546154,16.1892308 8.45423077,16.1892308 L8.45423077,16.1892308 C12.7303846,16.1892308 16.1983846,12.7212308 16.1983846,8.43592308 L16.1983846,8.43592308 C16.1983846,4.15453846 12.7303846,0.685230769 8.45423077,0.685230769 L8.45423077,0.685230769 C4.17546154,0.685230769 0.706153846,4.15453846 0.706153846,8.43592308 L0.706153846,8.43592308 Z" id="path-23"></path>
        <path d="M0.209647059,11.9973333 C0.209647059,17.98 4.91376471,22.8306667 10.7152941,22.8306667 L10.7152941,22.8306667 C16.5168235,22.8306667 21.2183529,17.98 21.2183529,11.9973333 L21.2183529,11.9973333 C21.2183529,6.01466667 16.5168235,1.16533333 10.7152941,1.16533333 L10.7152941,1.16533333 C4.91376471,1.16533333 0.209647059,6.01466667 0.209647059,11.9973333 L0.209647059,11.9973333 Z" id="path-25"></path>
        <path d="M0.75,0.6765 L0.75,11.2155 L25.4930556,11.2155 C26.8444444,11.2155 27.9402778,10.0335 27.9402778,8.571 L27.9402778,8.571 C27.9402778,7.602 27.4513889,6.711 26.6638889,6.249 L26.6638889,6.249 L17.2152778,0.6765 L0.75,0.6765 Z" id="path-27"></path>
        <path d="M1.36392308,6.18407692 C-0.0706153846,10.2183077 2.03346154,14.6513846 6.06507692,16.0872308 L6.06507692,16.0872308 C10.0940769,17.5243846 14.5271538,15.419 15.9603846,11.3847692 L15.9603846,11.3847692 C17.3949231,7.35053846 15.2921538,2.91615385 11.2605385,1.48030769 L11.2605385,1.48030769 C10.4013846,1.17430769 9.52523077,1.02784615 8.66215385,1.02784615 L8.66215385,1.02784615 C5.47792308,1.02784615 2.49376923,3.01030769 1.36392308,6.18407692 L1.36392308,6.18407692 Z" id="path-29"></path>
        <path d="M1.35235294,7.83070588 C-0.591411765,13.2996471 2.26082353,19.316 7.72588235,21.2623529 L7.72588235,21.2623529 C13.1935294,23.21 19.2021176,20.3538824 21.1471765,14.8823529 L21.1471765,14.8823529 C23.0922353,9.41341176 20.24,3.39835294 14.7736471,1.45070588 L14.7736471,1.45070588 C13.6102353,1.03529412 12.4209412,0.838588235 11.2523529,0.838588235 L11.2523529,0.838588235 C6.93388235,0.838588235 2.88458824,3.52517647 1.35235294,7.83070588 L1.35235294,7.83070588 Z" id="path-31"></path>
        <path d="M0.899583333,15.0786667 L2.62083333,25.2946667 C2.7625,26.144 3.38583333,26.8506667 4.24716667,27.14 L4.24716667,27.14 C5.54625,27.576 6.97283333,26.9386667 7.43608333,25.7146667 L7.43608333,25.7146667 L15.89925,3.31733333 L6.53225,0.176 L0.899583333,15.0786667 Z" id="path-33"></path>
        <polygon id="path-35" points="-2.68229883e-13 14.806005 14.4330597 35.2613333 31.9924247 17.6733333 14.2794089 0.966666667"></polygon>
        <polygon id="path-37" points="14.7092105 0.00659259259 0.919736842 177.310415 5.58289474 177.310415 23.9513158 9.27182222 24.9223684 0.00659259259"></polygon>
        <polygon id="path-39" points="3.55595589 0.0291077583 0.553983321 63.5514678 90.9391119 63.5514678 91.599063 49.5766278 93.9437672 0.0291077583"></polygon>
        <path d="M0.415913525,6.74098012 C0.24521286,10.4449053 3.08751441,13.4478667 6.76299778,13.4478667 L6.76299778,13.4478667 C10.4398359,13.4478667 13.55851,10.4449053 13.7305654,6.74098012 L13.7305654,6.74098012 C13.9026208,3.03841871 11.0589645,0.0340935673 7.38483592,0.0340935673 L7.38483592,0.0340935673 C3.70664302,0.0340935673 0.589323725,3.03841871 0.415913525,6.74098012 L0.415913525,6.74098012 Z" id="path-41"></path>
        <polygon id="path-43" points="0.542053376 14.6779515 88.9807522 14.6779515 89.6264913 0.558842498"></polygon>
        <polygon id="path-45" points="0.814473684 0.00659259259 1.78421053 9.27182222 20.1526316 177.310415 24.8157895 177.310415 11.0289474 0.00659259259"></polygon>
        <polygon id="path-47" points="0.603948936 0.269444444 313.635226 0.269444444 313.635226 9.96388889 0.603948936 9.96388889"></polygon>
        <polygon id="path-49" points="0.0246153846 2.36410909 31.4512467 12.9338182 31.9681698 11.0249455 0.541538462 0.458072727"></polygon>
        <path d="M7.51242857,0.677241379 C5.25471429,1.14344828 2.196,3.44965517 2.28342857,5.91310345 L2.28342857,5.91310345 C2.376,8.48275862 4.65685714,10.5613793 4.581,13.1296552 L4.581,13.1296552 C4.52828571,14.8124138 3.47657143,16.2358621 2.56628571,17.6027586 L2.56628571,17.6027586 C1.65342857,18.9724138 0.804857143,20.6386207 1.224,22.262069 L1.224,22.262069 C1.84114286,24.6496552 4.70314286,25.3875862 6.09042857,27.3668966 L6.09042857,27.3668966 C6.984,28.6427586 7.18071429,30.3213793 7.23471429,31.9144828 L7.23471429,31.9144828 C7.29,33.5103448 7.254,35.1406897 7.749,36.6496552 L7.749,36.6496552 C8.94985714,40.2965517 13.2158571,39.8606897 14.598,32.9751724 L14.598,32.9751724 C14.9477143,31.24 15.5327143,29.5682759 15.9981429,27.8662069 L15.9981429,27.8662069 C16.479,26.1117241 16.965,24.3310345 16.9572857,22.4993103 L16.9572857,22.4993103 C16.9508571,20.1241379 16.0714286,17.7627586 14.5517143,16.0344828 L14.5517143,16.0344828 C13.9564286,15.3558621 13.2621429,14.7655172 12.8018571,13.9737931 L12.8018571,13.9737931 C12.3428571,13.1834483 12.1744286,12.0965517 12.6861429,11.3475862 L12.6861429,11.3475862 C13.4254286,10.2634483 15.0068571,10.4965517 16.0881429,9.82068966 L16.0881429,9.82068966 C17.4497143,8.96551724 17.6387143,6.79172414 16.8634286,5.31724138 L16.8634286,5.31724138 C16.1704286,4.00551724 13.284,0.511724138 9.09257143,0.511724138 L9.09257143,0.511724138 C8.58471429,0.511724138 8.05628571,0.562758621 7.51242857,0.677241379 L7.51242857,0.677241379 Z" id="path-51"></path>
        <polygon id="path-53" points="0.389950957 0.223 534.244341 0.223 534.244341 2.223 0.389950957 2.223"></polygon>
        <polygon id="path-55" points="0.473142857 0.659919732 2.27957143 28.9867124 15.3642857 28.9867124 17.1694286 0.659919732"></polygon>
        <polygon id="path-57" points="0.9954 64.8661245 2.9582 64.9535434 6.0942 1.21061887 4.1314 1.12584906"></polygon>
        <polygon id="path-59" points="0.593803922 0.618 65.966098 0.618 65.966098 1.648 0.593803922 1.648"></polygon>
        <path d="M1.11578295,1.106 L172.979884,1.106 L1.11578295,1.106 Z" id="path-61"></path>
        <polygon id="path-63" points="0 0 187 0 187 1 0 1"></polygon>
        <path d="M0.680529412,1.106 L45.6306471,1.106 L0.680529412,1.106 Z" id="path-65"></path>
        <polygon id="path-67" points="0.681882353 0.416 45.6306471 0.416 45.6306471 1.798 0.681882353 1.798"></polygon>
        <path d="M0.4905,1.106 L8.4885,1.106 L0.4905,1.106 Z" id="path-69"></path>
        <polygon id="path-71" points="0.4905 0.416 8.49 0.416 8.49 1.798 0.4905 1.798"></polygon>
        <path d="M0.0363905325,1.18 L14.9210059,1.18 L0.0363905325,1.18 Z" id="path-73"></path>
    </defs>
    <g id="Page-1" stroke="none" stroke-width="1" fill="none" fill-rule="evenodd">
        <g id="OurTutors" transform="translate(-818.000000, -167.000000)">
            <g id="top" transform="translate(818.000000, 167.000000)">
                <g id="Group-6-Copy" transform="translate(450.000000, 0.000000)">
                    <path d="M36,1.4855732 C16.9804783,1.4855732 1.50649677,16.7438955 1.50649677,35.5 C1.50649677,54.2553617 16.9804783,69.5144268 36,69.5144268 C55.0195217,69.5144268 70.4935032,54.2553617 70.4935032,35.5 C70.4935032,16.7438955 55.0195217,1.4855732 36,1.4855732 M36,71 C16.1488921,71 0,55.0746553 0,35.5 C0,15.9253447 16.1488921,0 36,0 C55.8503547,0 72,15.9253447 72,35.5 C72,55.0746553 55.8503547,71 36,71" id="Fill-100" fill="#352BBD"></path>
                    <path d="M68,37 C68,53.56825 54.569,67 38,67 C21.43175,67 8,53.56825 8,37 C8,20.43175 21.43175,7 38,7 C54.569,7 68,20.43175 68,37" id="Fill-101" fill="#B7DDFF"></path>
                    <path d="M37.5,7.48780488 C21.502378,7.48780488 8.48780488,20.502378 8.48780488,36.5 C8.48780488,52.497622 21.502378,65.5121951 37.5,65.5121951 C53.497622,65.5121951 66.5121951,52.497622 66.5121951,36.5 C66.5121951,20.502378 53.497622,7.48780488 37.5,7.48780488 M37.5,67 C20.6825976,67 7,53.3174024 7,36.5 C7,19.6825976 20.6825976,6 37.5,6 C54.3174024,6 68,19.6825976 68,36.5 C68,53.3174024 54.3174024,67 37.5,67" id="Fill-102" fill="#FFFFFF"></path>
                    <path d="M36.5,7 L36.5,12 L36.5,7 Z" id="Fill-103" fill="#333854"></path>
                    <polygon id="Fill-104" fill="#FFFFFF" points="36 12 37 12 37 7 36 7"></polygon>
                    <path d="M36.5,59 L36.5,64 L36.5,59 Z" id="Fill-105" fill="#333854"></path>
                    <polygon id="Fill-106" fill="#FFFFFF" points="36 64 37 64 37 59 36 59"></polygon>
                    <path d="M21,11 L24,16 L21,11 Z" id="Fill-107" fill="#333854"></path>
                    <polygon id="Fill-108" fill="#FFFFFF" points="23.8334736 16 21 11.6034275 22.1671999 11 25 15.3965725"></polygon>
                    <path d="M48,55 L51,60 L48,55 Z" id="Fill-109" fill="#333854"></path>
                    <polygon id="Fill-110" fill="#FFFFFF" points="50.8334736 60 48 55.6034275 49.1671999 55 52 59.3965725"></polygon>
                    <path d="M11,21 L16,24 L11,21 Z" id="Fill-111" fill="#333854"></path>
                    <polygon id="Fill-112" fill="#FFFFFF" points="15.3965725 25 11 22.1665264 11.6034275 21 16 23.8334736"></polygon>
                    <path d="M56,47 L61,50 L56,47 Z" id="Fill-113" fill="#333854"></path>
                    <polygon id="Fill-114" fill="#FFFFFF" points="60.3965725 51 56 48.1665264 56.6034275 47 61 49.8334736"></polygon>
                    <path d="M8,36.5 L13,36.5 L8,36.5 Z" id="Fill-115" fill="#333854"></path>
                    <polygon id="Fill-116" fill="#FFFFFF" points="8 37 13 37 13 36 8 36"></polygon>
                    <path d="M59,36.5 L64,36.5 L59,36.5 Z" id="Fill-117" fill="#333854"></path>
                    <polygon id="Fill-118" fill="#FFFFFF" points="59 37 64 37 64 36 59 36"></polygon>
                    <path d="M11,50 L16,47 L11,50 Z" id="Fill-119" fill="#333854"></path>
                    <polygon id="Fill-120" fill="#FFFFFF" points="11.6034275 51 11 49.8334736 15.3965725 47 16 48.1665264"></polygon>
                    <path d="M56,24 L61,21 L56,24 Z" id="Fill-121" fill="#333854"></path>
                    <polygon id="Fill-122" fill="#FFFFFF" points="56.6034275 25 56 23.8334736 60.3965725 21 61 22.1665264"></polygon>
                    <path d="M21,60 L24,55 L21,60 Z" id="Fill-123" fill="#333854"></path>
                    <polygon id="Fill-124" fill="#FFFFFF" points="22.1665264 60 21 59.3965725 23.8328001 55 25 55.6034275"></polygon>
                    <path d="M48,16 L51,11 L48,16 Z" id="Fill-125" fill="#333854"></path>
                    <polygon id="Fill-126" fill="#FFFFFF" points="49.1665264 16 48 15.3965725 50.8328001 11 52 11.6034275"></polygon>
                    <polygon id="Fill-127" fill="#FFFFFF" points="50 36 35 36 35 17 36.4997001 17 36.4997001 34.5020498 50 34.5020498"></polygon>
                </g>
                <g id="plant-copy" transform="translate(0.000000, 250.000000)">
                    <path d="M72,146 L72,146 C55.9838626,146 43,133.407957 43,117.875146 L43,101 L101,101 L101,117.875146 C101,133.407957 88.0161374,146 72,146" id="Fill-29" fill="#FF809F"></path>
                    <path d="M39.3055789,100 C39.3055789,100 23.2262405,92.5585095 15.8244323,73.3320025 C9.18257796,56.0806841 0,56.1042966 0,56.1042966 C0,56.1042966 32.5422273,53.2212061 42.6235281,77.7717495 C51.3629982,99.0531373 61,100 61,100 L39.3055789,100 Z" id="Fill-30" fill="#D5EBFF"></path>
                    <path d="M81,101 L58.7000988,101 C54.550409,97.2672127 51.0432941,93.5036408 48.1008841,89.7400689 C21.3760737,55.5944818 40.8482893,22 40.8482893,22 C40.8482893,22 52.5103381,37.6452318 55.0782595,47.8657289 C55.3380238,48.9051629 55.5591504,49.9059651 55.7351006,50.8687394 C57.7377226,61.6083498 55.070532,67.8093401 58.2643843,78.5024718 C61.2834753,88.630615 66.8776209,94.2485081 71.7608326,97.3372327 C76.7510411,100.487526 81,101 81,101" id="Fill-31" fill="#352BBD"></path>
                    <path d="M72,97.4198435 L71.7660274,101 L58.682355,101 C54.4508461,97.3519928 50.8739756,93.6727152 47.8735503,89.9940277 C46.4163741,80.322649 45.5671628,63.0136424 55.6588961,52 C57.7003976,62.4973871 54.9806182,68.557929 58.2380496,79.0104756 C61.3160616,88.9095966 67.0205064,94.4013727 72,97.4198435" id="Fill-32" fill="#B7DDFF"></path>
                    <path d="M61.6359161,101 C61.6359161,101 41.4411784,76.4764929 59.5227427,50.5108522 C66.3307611,40.7336441 74.8401677,34.9596834 75.637231,22.090208 C76.7924489,3.42687615 66.6556276,0 66.6556276,0 C66.6556276,0 103.595477,7.36320169 89.9911525,50.9268523 C81.8084618,77.1294322 79.8635778,85.39035 87.476057,101 L61.6359161,101 Z" id="Fill-33" fill="#D5EBFF"></path>
                    <path d="M87.8410121,101 L60.8800354,101 L60.6955181,100.780404 C60.4877063,100.532549 55.5664285,94.5963896 52.7907003,85.4328154 C50.2240099,76.9568772 49.1420399,64.0648793 58.5646808,50.7772552 C60.2063328,48.4629597 61.9356458,46.3912207 63.4277223,44.6315083 L64.3785073,45.3756623 C62.9023692,47.1165354 61.1920596,49.1641365 59.5786063,51.4395759 C42.9579528,74.8774847 59.5540857,97.3687166 61.4752722,99.8225411 L85.9038873,99.8225411 C78.6776761,84.8311339 80.7631503,76.5647834 88.7844409,51.3430242 C93.9864792,34.9845872 92.3865122,22.0072235 84.0280639,12.7730018 L84.9537153,12 C93.6070235,21.5615553 95.2903604,34.9145284 89.957137,51.6868422 C81.8947745,77.0381219 79.9049305,85.0195273 87.4229364,100.157528 L87.8410121,101 Z" id="Fill-34" fill="#352BBD"></path>
                    <path d="M74.601403,16 C73.1149592,3.81374022 66.070783,1.24215353 66,1.21748755 L66.3330595,0 C66.512545,0.0366827417 70.7980787,0.932247609 76,3.86560202 L75.3793844,4.96798166 C73.4037793,3.85421772 71.5526765,3.04150526 70.0302092,2.46470077 C72.3129621,4.67578465 74.9862858,8.71594592 75.855906,15.8469444 L74.601403,16 Z" id="Fill-35" fill="#352BBD"></path>
                    <path d="M68.9440958,37 L68,36.5127278 C68.7758129,35.6427538 69.4261266,34.820943 69.9880205,34 L71,34.4009257 C70.4175699,35.2518079 69.7450086,36.1022563 68.9440958,37" id="Fill-36" fill="#352BBD"></path>
                    <path d="M67.4645425,101 C67.4645425,101 57.3445477,81.3629049 71.6967023,67.9859312 C77.3201758,62.744576 92.2984809,57.008046 99.6697104,45.1528731 C105.684082,35.4803386 103.010764,23 103.010764,23 C103.010764,23 124.236911,39.4852685 107.689071,63.5208939 C94.0408903,83.3442085 77.1389842,77.5732158 74.4656659,101 L67.4645425,101 Z" id="Fill-37" fill="#B7DDFF"></path>
                    <path d="M74.5214212,102 L66.6489973,102 L66.4824196,101.676871 C66.3792719,101.47635 56.340153,81.4912989 70.8300369,67.9712355 C72.7181145,66.2088256 75.5772034,64.4319203 78.8874154,62.3735608 C84.4123394,58.937526 91.2882615,54.6625646 96.1895568,48.695255 L97.0989166,49.4701597 C92.0719471,55.589672 85.1041405,59.9226152 79.5051161,63.4045525 C76.2476636,65.4296931 73.4342205,67.1794194 71.6309138,68.8621041 C58.7961358,80.837794 66.1753477,98.2124495 67.3769594,100.792043 L73.4686031,100.792043 C75.1515708,87.3963988 81.6611406,83.4820128 89.1826252,78.9582122 C94.7164413,75.6296856 100.988297,71.8578385 106.660236,63.6093013 C113.367802,53.8562531 114.654778,44.2330603 110.485594,35.0084935 C108.288666,30.1494847 105.073303,26.682043 103.336983,25.036201 C103.847979,28.8152958 104.46153,38.1751538 99.6450055,45.9308444 L98.6425756,45.2845872 C104.447303,35.9392246 101.924926,23.7279831 101.898843,23.6059794 L101.555017,22 L102.83725,22.9971688 C103.053623,23.1656789 124.278342,40.0970141 107.631248,64.3032728 C101.8117,72.7650145 95.4224697,76.6075271 89.7855059,79.9976596 C82.1341974,84.5999774 76.0905708,88.2353252 74.5824799,101.465479 L74.5214212,102 Z" id="Fill-38" fill="#352BBD"></path>
                    <path d="M117,65.4476618 C109.035818,68.479485 103.660823,72.6867413 100.044132,77.1568759 C91.4249538,87.7754758 92.7426446,99.8480275 92.8794476,100.923001 C92.8794476,100.977141 92.8871464,101 92.8871464,101 L67,101 C76.409793,77.4101294 90.1244374,69.0335146 100.844222,66.2621635 C109.207561,64.1001848 115.748638,65.3496088 117,65.4476618" id="Fill-39" fill="#352BBD"></path>
                    <path d="M94.5775768,100.925724 L75,101 C75,101 81.6340438,81.4694974 102,78 C93.0707599,88.2436926 94.4358526,99.8887627 94.5775768,100.925724" id="Fill-40" fill="#D5EBFF"></path>
                    <path d="M96.1653405,100 C96.1653405,100 114.819661,99.3890283 123.252387,87.246334 C131.684516,75.1030495 123.252387,56 123.252387,56 C123.252387,56 124.756229,71.8834941 108.942035,77.9997048 C93.8660482,83.8307954 85.30512,86.9930907 77,100 L96.1653405,100 Z" id="Fill-41" fill="#B7DDFF"></path>
                    <path d="M97.0399283,102 L97,100.706573 C97.1857269,100.699452 115.723333,99.8863666 124.002398,87 L125,87.7334599 C116.370049,101.164904 97.8251842,101.972163 97.0399283,102" id="Fill-42" fill="#B7DDFF"></path>
                    <path d="M100,101 L100,117.876823 C100,133.411364 87.5159044,146 72.1103685,146 C68.8302563,146 65.6774147,145.427736 62.7501894,144.377711 C67.1982992,140.74404 75.3551921,132.879934 70.9360074,127.128129 C66.9732615,121.977172 60.4176651,124.917242 54.5990815,115.747022 C49.4099093,107.570242 58.5109191,101 58.5109191,101 L100,101 Z" id="Fill-44" fill="#FFE4E0"></path>
                    <polygon id="Fill-45" fill="#FFFFFF" points="50 106 110 106 110 105 50 105"></polygon>
                    <polygon id="Fill-55" fill="#352BBD" points="89 102 99 102 99 101 89 101"></polygon>
                    <path d="M72.3546087,147 C56.1684449,147 43,133.990632 43,118 L44.19301,118 C44.19301,133.340635 56.8257934,145.821402 72.3546087,145.821402 C77.2930738,145.821402 82.1516072,144.540265 86.4040915,142.117657 L87,143.138323 C82.5667747,145.664648 77.5018505,147 72.3546087,147" id="Fill-56" fill="#352BBD"></path>
                    <polygon id="Fill-57" fill="#352BBD" points="44.2007204 113 43 113 43 99 79 99 79 100.305666 44.2007204 100.305666"></polygon>
                </g>
                <g id="Group-193-Copy" transform="translate(16.000000, 71.000000)">
                    <polygon id="Fill-1" fill="#B7DDFF" points="317 185 358.261861 325 363 325 329.262067 185"></polygon>
                    <polygon id="Fill-2" fill="#B7DDFF" points="264.737933 185 231 325 235.740845 325 277 185"></polygon>
                    <g id="Group-5" transform="translate(228.000000, 84.000000)">
                        <mask id="mask-2" fill="white">
                            <use xlink:href="#path-1"></use>
                        </mask>
                        <g id="Clip-4"></g>
                        <polygon id="Fill-3" fill="#FF809F" mask="url(#mask-2)" points="-6.25764762 144.786371 144.501752 144.786371 144.501752 -6.09614286 -6.25764762 -6.09614286"></polygon>
                    </g>
                    <g id="Group-8" transform="translate(358.000000, 123.000000)">
                        <mask id="mask-4" fill="white">
                            <use xlink:href="#path-3"></use>
                        </mask>
                        <g id="Clip-7"></g>
                        <polygon id="Fill-6" fill="#352BBD" mask="url(#mask-4)" points="-6.40571429 57.5162308 16.94 57.5162308 16.94 -5.51584615 -6.40571429 -5.51584615"></polygon>
                    </g>
                    <g id="Group-11" transform="translate(228.000000, 164.000000)">
                        <mask id="mask-6" fill="white">
                            <use xlink:href="#path-5"></use>
                        </mask>
                        <g id="Clip-10"></g>
                        <polygon id="Fill-9" fill="#352BBD" mask="url(#mask-6)" points="-6.56081081 63.2262925 56.727027 63.2262925 56.727027 -6.56404002 -6.56081081 -6.56404002"></polygon>
                    </g>
                    <g id="Group-14" transform="translate(357.000000, 177.000000)">
                        <mask id="mask-8" fill="white">
                            <use xlink:href="#path-7"></use>
                        </mask>
                        <g id="Clip-13"></g>
                        <polygon id="Fill-12" fill="#352BBD" mask="url(#mask-8)" points="-5.6148 16.2885714 10.8108 16.2885714 10.8108 -6.19142857 -5.6148 -6.19142857"></polygon>
                    </g>
                    <g id="suitcase" transform="translate(402.000000, 249.000000)">
                        <g id="Group-17" transform="translate(32.307692, 0.000000)">
                            <mask id="mask-10" fill="white">
                                <use xlink:href="#path-9"></use>
                            </mask>
                            <g id="Clip-16"></g>
                            <polygon id="Fill-15" fill="#352BBD" mask="url(#mask-10)" points="-6.75839161 34.3398294 34.8325175 34.3398294 34.8325175 -6.72075245 -6.75839161 -6.72075245"></polygon>
                        </g>
                        <polygon id="Fill-18" fill="#73CC02" points="0 74 90 74 90 12.5230769 0 12.5230769"></polygon>
                        <polygon id="Fill-19" fill="#352BBD" points="0 44.4 80.7692308 44.4 80.7692308 42.1230769 0 42.1230769"></polygon>
                        <polygon id="Fill-20" fill="#FFFFFF" points="33.4615385 51.2307692 47.3076923 51.2307692 47.3076923 42.1230769 33.4615385 42.1230769"></polygon>
                        <polygon id="Fill-21" fill-opacity="0.2" fill="#444444" points="79.6153846 74 90 74 90 12.5230769 79.6153846 12.5230769"></polygon>
                    </g>
                    <g id="Group-24" transform="translate(263.000000, 145.000000)">
                        <mask id="mask-12" fill="white">
                            <use xlink:href="#path-11"></use>
                        </mask>
                        <g id="Clip-23"></g>
                        <polygon id="Fill-22" fill="#352BBD" mask="url(#mask-12)" points="-5.72246154 53.8573333 74.2873846 53.8573333 74.2873846 -6.41333333 -5.72246154 -6.41333333"></polygon>
                    </g>
                    <g id="Group-27" transform="translate(287.000000, 172.000000)">
                        <mask id="mask-14" fill="white">
                            <use xlink:href="#path-13"></use>
                        </mask>
                        <g id="Clip-26"></g>
                        <polygon id="Fill-25" fill="#352BBD" mask="url(#mask-14)" points="-6.08506667 25.118 24.3630667 25.118 24.3630667 -5.3466 -6.08506667 -5.3466"></polygon>
                    </g>
                    <g id="Group-30" transform="translate(359.000000, 113.000000)">
                        <mask id="mask-16" fill="white">
                            <use xlink:href="#path-15"></use>
                        </mask>
                        <g id="Clip-29"></g>
                        <polygon id="Fill-28" fill="#7760DB" mask="url(#mask-16)" points="-6.5313 33.3126 32.8239 33.3126 32.8239 -6.0669 -6.5313 -6.0669"></polygon>
                    </g>
                    <g id="Group-33" transform="translate(264.000000, 179.000000)">
                        <mask id="mask-18" fill="white">
                            <use xlink:href="#path-17"></use>
                        </mask>
                        <g id="Clip-32"></g>
                        <polygon id="Fill-31" fill="#352BBD" mask="url(#mask-18)" points="-6.6366 33.72705 32.73345 33.72705 32.73345 -5.6646 -6.6366 -5.6646"></polygon>
                    </g>
                    <g id="Group-36" transform="translate(304.000000, 179.000000)">
                        <mask id="mask-20" fill="white">
                            <use xlink:href="#path-19"></use>
                        </mask>
                        <g id="Clip-35"></g>
                        <polygon id="Fill-34" fill="#352BBD" mask="url(#mask-20)" points="-6.5205 33.72705 32.84685 33.72705 32.84685 -5.66595 -6.5205 -5.66595"></polygon>
                    </g>
                    <g id="Group-39" transform="translate(263.000000, 179.000000)">
                        <mask id="mask-22" fill="white">
                            <use xlink:href="#path-21"></use>
                        </mask>
                        <g id="Clip-38"></g>
                        <polygon id="Fill-37" fill="#352BBD" mask="url(#mask-22)" points="-5.72376923 33.72705 74.2847692 33.72705 74.2847692 -5.6646 -5.72376923 -5.6646"></polygon>
                    </g>
                    <g id="Group-42" transform="translate(315.000000, 307.000000)">
                        <mask id="mask-24" fill="white">
                            <use xlink:href="#path-23"></use>
                        </mask>
                        <g id="Clip-41"></g>
                        <polygon id="Fill-40" fill="#352BBD" mask="url(#mask-24)" points="-5.83230769 22.7276923 22.7381538 22.7276923 22.7381538 -5.85323077 -5.83230769 -5.85323077"></polygon>
                    </g>
                    <g id="Group-45" transform="translate(309.000000, 184.000000)">
                        <mask id="mask-26" fill="white">
                            <use xlink:href="#path-25"></use>
                        </mask>
                        <g id="Clip-44"></g>
                        <polygon id="Fill-43" fill="#352BBD" mask="url(#mask-26)" points="-6.26223529 29.496 27.6889412 29.496 27.6889412 -5.50266667 -6.26223529 -5.50266667"></polygon>
                    </g>
                    <polygon id="Fill-46" fill="#352BBD" points="309 195 314.945177 313 331 313 331 195"></polygon>
                    <g id="Group-49" transform="translate(315.000000, 313.000000)">
                        <mask id="mask-28" fill="white">
                            <use xlink:href="#path-27"></use>
                        </mask>
                        <g id="Clip-48"></g>
                        <polygon id="Fill-47" fill="#FF95A9" mask="url(#mask-28)" points="-6.19444444 18.714 34.8847222 18.714 34.8847222 -6.8235 -6.19444444 -6.8235"></polygon>
                    </g>
                    <g id="Group-52" transform="translate(363.000000, 203.000000)">
                        <mask id="mask-30" fill="white">
                            <use xlink:href="#path-29"></use>
                        </mask>
                        <g id="Clip-51"></g>
                        <polygon id="Fill-50" fill="#352BBD" mask="url(#mask-30)" points="-5.62569231 23.0768462 22.95 23.0768462 22.95 -5.51061538 -5.62569231 -5.51061538"></polygon>
                    </g>
                    <g id="Group-55" transform="translate(248.000000, 165.000000)">
                        <mask id="mask-32" fill="white">
                            <use xlink:href="#path-31"></use>
                        </mask>
                        <g id="Clip-54"></g>
                        <polygon id="Fill-53" fill="#352BBD" mask="url(#mask-32)" points="-5.72776471 28.3450588 28.2298824 28.3450588 28.2298824 -5.63070588 -5.72776471 -5.63070588"></polygon>
                    </g>
                    <polygon id="Fill-56" fill="#352BBD" points="255 185.705722 369.680291 219 375 204.618479 262.29017 166"></polygon>
                    <g id="Group-129" transform="translate(220.000000, 0.000000)">
                        <path d="M67.1498192,179.315467 C66.9375566,184.3968 70.9154657,188.686133 76.0339505,188.898133 C81.1551222,189.1088 85.4769505,185.1608 85.6892131,180.078133 C85.9014758,174.998133 81.9235667,170.707467 76.8050818,170.4968 C71.6852535,170.286133 67.3620818,174.2328 67.1498192,179.315467" id="Fill-57" fill="#E6659B"></path>
                        <polygon id="Fill-59" fill="#7798FF" points="70.329997 107.598 21.8266434 145.723333 3.3423303 128.735333 40.1860172 80.714"></polygon>
                        <path d="M41.0932384,104.091467 C47.9004202,111.694133 59.6299455,112.3808 67.2902081,105.623467 C74.9504707,98.8674667 75.6423394,87.2274667 68.8324707,79.6234667 C62.0252889,72.0208 50.2971071,71.3354667 42.6368444,78.0914667 C34.9765818,84.8488 34.2860566,96.4888 41.0932384,104.091467" id="Fill-61" fill="#7798FF"></path>
                        <polygon id="Fill-63" fill="#7798FF" points="90.8291929 105.6448 129.532193 152.211467 150.432001 138.2488 121.474274 85.1728"></polygon>
                        <path d="M116.951333,108.1332 C109.045222,114.6052 97.3506263,113.491867 90.829596,105.6452 C84.3085657,97.7985333 85.4303333,86.1905333 93.3364444,79.7185333 C101.242556,73.2465333 112.938495,74.3612 119.458182,82.2078667 C125.980556,90.0532 124.857444,101.6612 116.951333,108.1332" id="Fill-65" fill="#7798FF"></path>
                        <path d="M41.9224061,86.4261333 L42.098396,109.759467 L48.1451939,177.6168 L110.217234,181.0888 L116.461517,112.823467 L118.585487,89.5848 C119.262578,82.2488 113.606719,75.8421333 106.190962,75.5354667 L55.4561636,73.4448 C48.0404061,73.1394667 41.8686687,79.0608 41.9224061,86.4261333" id="Fill-67" fill="#6285FF"></path>
                        <path d="M43.7079646,174.094133 L44.3299747,186.663467 L44.3595303,187.279467 C44.6900152,193.9728 50.2558636,199.2328 57.0093081,199.2328 L98.0619747,199.2328 C104.814076,199.2328 110.379924,193.9728 110.711753,187.279467 L110.741308,186.663467 L111.363318,174.094133 L43.7079646,174.094133 Z" id="Fill-69" fill="#352BBD"></path>
                        <path d="M106.018868,40.8401333 L98.0872313,40.2748 L99.750403,17.2508 L107.682039,17.8148 C114.088878,18.2708 118.90912,23.7961333 118.449666,30.1521333 C117.990211,36.5108 112.424363,41.2961333 106.018868,40.8401333" id="Fill-71" fill="#40327A"></path>
                        <path d="M79.8100758,50.8909333 L72.6777828,50.3842667 C67.3268838,50.0029333 63.2992677,45.3882667 63.6834899,40.0776 L64.2531061,32.2029333 L81.072904,33.4002667 L79.8100758,50.8909333 Z" id="Fill-73" fill="#40327A"></path>
                        <polygon id="Fill-75" fill="#FF95A9" points="93.6905737 75.3688 70.5539475 73.7221333 72.3528061 48.8408 95.4880889 50.4874667"></polygon>
                        <path d="M97.3613737,60.6682667 L71.6278889,58.8362667 L75.3666667,7.0816 L113.130606,9.7696 L110.254313,49.5842667 C109.777394,56.1789333 104.004657,61.1402667 97.3613737,60.6682667" id="Fill-77" fill="#FF95A9"></path>
                        <path d="M77.4840535,4.07586667 L85.6843768,4.65986667 L83.4126293,36.0852 L64.0725485,34.7078667 L65.5422657,14.3398667 C65.9842556,8.2332 71.3311242,3.6372 77.4840535,4.07586667" id="Fill-79" fill="#40327A"></path>
                        <path d="M73.0942475,38.4964 L78.1401869,38.8564 L78.5015707,33.8470667 C78.7030859,31.0804 76.6046414,28.6777333 73.8183586,28.4790667 C71.0307323,28.2804 68.6098636,30.3617333 68.4096919,33.1284 C68.2095202,35.8950667 70.3079646,38.2977333 73.0942475,38.4964" id="Fill-81" fill="#FF95A9"></path>
                        <path d="M98.2088121,14.4886667 L88.9888222,13.8326667 C85.2876606,13.5686667 82.2501556,10.5086667 82.4194283,6.83 C82.5940747,3.054 85.8666808,0.186 89.6417313,0.454 L98.8617212,1.11 C102.561539,1.374 105.600388,4.434 105.429772,8.11266667 C105.255125,11.8886667 101.983863,14.758 98.2088121,14.4886667" id="Fill-83" fill="#40327A"></path>
                        <path d="M95.3159949,14.2829333 L86.0973485,13.6269333 C82.3961869,13.3629333 79.3586818,10.3029333 79.5279545,6.62426667 C79.702601,2.84826667 82.9738636,-0.0197333333 86.7502576,0.248266667 L95.968904,0.904266667 C99.6700657,1.16826667 102.707571,4.22826667 102.538298,7.90693333 C102.363652,11.6829333 99.0923889,14.5522667 95.3159949,14.2829333" id="Fill-85" fill="#40327A"></path>
                        <path d="M108.679539,15.234 L99.4595495,14.578 C95.7583879,14.314 92.7208828,11.254 92.891499,7.57533333 C93.0661455,3.79933333 96.3374081,0.93 100.112459,1.19933333 L109.332448,1.85533333 C113.03361,2.11933333 116.071115,5.17933333 115.900499,8.858 C115.727196,12.634 112.45459,15.5033333 108.679539,15.234" id="Fill-87" fill="#40327A"></path>
                        <path d="M99.6493768,24.3089333 L90.4307303,23.6529333 C86.7295687,23.3902667 83.6920636,20.3302667 83.8613364,16.6502667 C84.0359828,12.8742667 87.3072455,10.0062667 91.0836394,10.2756 L100.302286,10.9316 C104.003447,11.1942667 107.040953,14.2542667 106.87168,17.9342667 C106.697033,21.7102667 103.425771,24.5782667 99.6493768,24.3089333" id="Fill-89" fill="#40327A"></path>
                        <path d="M64.8932525,73.8336 C64.4982828,83.2829333 71.8898586,91.2549333 81.4107778,91.6469333 C90.9222929,92.0389333 98.9546869,84.7016 99.3496566,75.2522667 L64.8932525,73.8336 Z" id="Fill-91" fill="#FF95A9"></path>
                        <path d="M82.1440242,92.5836 C86.7103576,92.5836 91.0469636,90.9062667 94.4283879,87.8182667 C97.9992364,84.5556 100.076186,80.1076 100.276358,75.2916 L98.4224182,75.2156 C98.2410545,79.5396 96.3777111,83.5342667 93.1709333,86.4636 C89.965499,89.3916 85.8196606,90.9062667 81.4481253,90.7262667 C78.2574687,90.5956 75.2051859,89.5556 72.6231051,87.7169333 L71.540297,89.2129333 C74.4192768,91.2609333 77.8181657,92.4209333 81.3728929,92.5676 C81.6308323,92.5782667 81.8887717,92.5836 82.1440242,92.5836" id="Fill-93" fill="#FFFFFF"></path>
                        <path d="M68.1862788,86.1226667 L69.6089758,84.9386667 C68.672602,83.8306667 67.8920667,82.604 67.2861778,81.2946667 L65.5988242,82.0626667 C66.2745717,83.5213333 67.1451172,84.8866667 68.1862788,86.1226667" id="Fill-95" fill="#FFFFFF"></path>
                        <path d="M93.6905737,75.3674667 C93.2324626,81.7088 87.6813919,86.4808 81.2920182,86.0248 C74.9039879,85.5701333 70.0971798,80.0621333 70.5539475,73.7221333 C71.0120586,67.3808 76.5631293,62.6088 82.952503,63.0634667 C89.3418768,63.5181333 94.1486848,69.0274667 93.6905737,75.3674667" id="Fill-97" fill="#FF95A9"></path>
                        <path d="M80.6642313,39.0354667 L80.6642313,39.0354667 C79.2710899,38.9354667 78.2218677,37.7341333 78.3212818,36.3501333 L78.3669586,35.7261333 L83.412898,36.0848 L83.3685646,36.7101333 C83.2678071,38.0928 82.0573727,39.1341333 80.6642313,39.0354667" id="Fill-99" fill="#40327A"></path>
                        <path d="M107.980282,24.9026667 L98.7616354,24.2466667 C95.0604737,23.9826667 92.0229687,20.9226667 92.1922414,17.244 C92.3668879,13.468 95.6381505,10.5986667 99.4145444,10.868 L108.633191,11.524 C112.334353,11.788 115.371858,14.848 115.202585,18.5266667 C115.027938,22.3026667 111.755332,25.1706667 107.980282,24.9026667" id="Fill-101" fill="#40327A"></path>
                        <path d="M111.085496,25.1226667 L103.15386,24.5586667 L104.817031,1.53466667 L112.748668,2.09866667 C119.155506,2.55466667 123.975748,8.07866667 123.516294,14.436 L123.516294,14.4373333 C123.056839,20.7946667 117.492334,25.58 111.085496,25.1226667" id="Fill-103" fill="#40327A"></path>
                        <path d="M150.710361,149.640933 C153.727714,143.3836 151.06234,135.8836 144.757603,132.888933 C138.452866,129.892933 130.896047,132.5396 127.878694,138.796933 C124.86134,145.054267 127.526714,152.554267 133.831452,155.548933 C140.136189,158.5436 147.693007,155.896933 150.710361,149.640933" id="Fill-105" fill="#7798FF"></path>
                        <path d="M25.8877111,138.493867 C24.6853374,145.3272 18.1307212,149.900533 11.2456202,148.708533 C4.36051919,147.516533 -0.247460606,141.009867 0.952226263,134.176533 C2.1546,127.3432 8.7105596,122.768533 15.5956606,123.961867 C22.4821051,125.153867 27.0900848,131.660533 25.8877111,138.493867" id="Fill-107" fill="#617CFF"></path>
                        <polygon id="Fill-109" fill="#617CFF" points="15.5902869 123.9612 87.531196 136.418533 86.6955798 147.386533 73.6306808 147.658533 13.6920141 148.898533"></polygon>
                        <polygon id="Fill-111" fill="#7798FF" points="74.6529 134.189067 87.5310616 136.4184 86.6954455 147.3864 73.6305465 147.659733"></polygon>
                        <path d="M106.575184,137.432667 C105.323103,133.558 101.143679,131.424667 97.241002,132.667333 C93.3369818,133.908667 91.1874869,138.056667 92.4395677,141.931333 C93.6903051,145.804667 97.8710727,147.939333 101.773749,146.696667 C105.676426,145.454 107.827265,141.306 106.575184,137.432667" id="Fill-115" fill="#FF95A9"></path>
                        <path d="M91.8813707,140.1748 C92.8204313,143.080133 91.2083101,146.1908 88.2796232,147.1228 C85.3536232,148.0548 82.2193909,146.4548 81.2789869,143.548133 C80.3412697,140.644133 81.9520475,137.533467 84.8807343,136.600133 C87.8080778,135.668133 90.9436535,137.268133 91.8813707,140.1748" id="Fill-117" fill="#FF95A9"></path>
                        <polygon id="Fill-119" fill="#FF95A9" points="99.6992182 147.0472 86.7243293 147.385867 84.8811374 136.600533 97.2407333 132.6672"></polygon>
                        <path d="M94.2678475,47.2490667 C94.0636455,50.0384 96.1755242,52.4650667 98.9873323,52.6677333 C101.796454,52.8717333 104.242847,50.7744 104.447049,47.9850667 L94.2678475,47.2490667 Z" id="Fill-125" fill="#FFFFFF"></path>
                        <polygon id="Fill-127" fill="#FFFFFF" points="79.5385677 147.622667 80.4950929 135.113333 78.6438404 134.974667 77.6873152 147.484"></polygon>
                    </g>
                    <g id="Group-132" transform="translate(368.000000, 206.000000)">
                        <mask id="mask-34" fill="white">
                            <use xlink:href="#path-33"></use>
                        </mask>
                        <g id="Clip-131"></g>
                        <polygon id="Fill-130" fill="#FF95A9" mask="url(#mask-34)" points="-6.18375 33.9426667 22.984 33.9426667 22.984 -6.492 -6.18375 -6.492"></polygon>
                    </g>
                    <g id="Group-135" transform="translate(253.000000, 166.000000)">
                        <mask id="mask-36" fill="white">
                            <use xlink:href="#path-35"></use>
                        </mask>
                        <g id="Clip-134"></g>
                        <polygon id="Fill-133" fill="#352BBD" mask="url(#mask-36)" points="-6.93836891 41.9293333 38.3416311 41.9293333 38.3416311 -5.7 -6.93836891 -5.7"></polygon>
                    </g>
                    <g id="Group-138" transform="translate(177.000000, 147.000000)">
                        <mask id="mask-38" fill="white">
                            <use xlink:href="#path-37"></use>
                        </mask>
                        <g id="Clip-137"></g>
                        <polygon id="Fill-136" fill="#B7DDFF" mask="url(#mask-38)" points="-5.65921053 183.903007 31.5013158 183.903007 31.5013158 -6.586 -5.65921053 -6.586"></polygon>
                    </g>
                    <g id="Group-4" transform="translate(348.000000, 80.000000)">
                        <g id="Group-147">
                            <mask id="mask-40" fill="white">
                                <use xlink:href="#path-39"></use>
                            </mask>
                            <g id="Clip-146"></g>
                            <polygon id="Fill-145" fill="#BCCDFF" mask="url(#mask-40)" points="-6.15417791 70.1514678 100.649246 70.1514678 100.649246 -6.57221224 -6.15417791 -6.57221224"></polygon>
                        </g>
                        <g id="Group-150" transform="translate(38.975610, 25.001949)">
                            <mask id="mask-42" fill="white">
                                <use xlink:href="#path-41"></use>
                            </mask>
                            <g id="Clip-149"></g>
                            <polygon id="Fill-148" fill="#FFFFFF" mask="url(#mask-42)" points="-6.36469623 20.2665801 20.5111752 20.2665801 20.5111752 -6.78325614 -6.36469623 -6.78325614"></polygon>
                        </g>
                        <g id="Group-153" transform="translate(1.146341, 50.003899)">
                            <mask id="mask-44" fill="white">
                                <use xlink:href="#path-43"></use>
                            </mask>
                            <g id="Clip-152"></g>
                            <polygon id="Fill-151" fill-opacity="0.2" fill="#352BBD" mask="url(#mask-44)" points="-2.58262425 13.3915507 99.6265928 13.3915507 99.6265928 -14.0650881 -2.58262425 -14.0650881"></polygon>
                        </g>
                    </g>
                    <g id="Group-141" transform="translate(468.000000, 147.000000)">
                        <mask id="mask-46" fill="white">
                            <use xlink:href="#path-45"></use>
                        </mask>
                        <g id="Clip-140"></g>
                        <polygon id="Fill-139" fill="#B7DDFF" mask="url(#mask-46)" points="-5.76447368 183.903007 31.3947368 183.903007 31.3947368 -6.586 -5.76447368 -6.586"></polygon>
                    </g>
                    <g id="Group-144" transform="translate(178.000000, 142.000000)">
                        <mask id="mask-48" fill="white">
                            <use xlink:href="#path-47"></use>
                        </mask>
                        <g id="Clip-143"></g>
                        <polygon id="Fill-142" fill="#1C65E4" mask="url(#mask-48)" points="-3.7813617 16.8652778 318.020536 16.8652778 318.020536 -6.63194444 -3.7813617 -6.63194444"></polygon>
                    </g>
                    <g id="Group-156" transform="translate(277.000000, 191.000000)">
                        <mask id="mask-50" fill="white">
                            <use xlink:href="#path-49"></use>
                        </mask>
                        <g id="Clip-155"></g>
                        <polygon id="Fill-154" fill="#7760DB" mask="url(#mask-50)" points="-6.34143236 20.0247273 38.3342175 20.0247273 38.3342175 -6.63283636 -6.34143236 -6.63283636"></polygon>
                    </g>
                    <g id="Group-159" transform="translate(193.000000, 70.000000)">
                        <mask id="mask-52" fill="white">
                            <use xlink:href="#path-51"></use>
                        </mask>
                        <g id="Clip-158"></g>
                        <polygon id="Fill-157" fill="#DCEBFF" mask="url(#mask-52)" points="-5.31514286 45.8110345 23.7471429 45.8110345 23.7471429 -6.38482759 -5.31514286 -6.38482759"></polygon>
                    </g>
                    <g id="Group-162" transform="translate(0.000000, 324.000000)">
                        <mask id="mask-54" fill="white">
                            <use xlink:href="#path-53"></use>
                        </mask>
                        <g id="Clip-161"></g>
                        <polygon id="Fill-160" fill="#B7DDFF" mask="url(#mask-54)" points="-72.7712344 14.575 537.839044 14.575 537.839044 -4.425 -72.7712344 -4.425"></polygon>
                    </g>
                    <g id="Group-165" transform="translate(194.000000, 112.000000)">
                        <mask id="mask-56" fill="white">
                            <use xlink:href="#path-55"></use>
                        </mask>
                        <g id="Clip-164"></g>
                        <polygon id="Fill-163" fill="#FF809F" mask="url(#mask-56)" points="-5.95542857 35.5335351 23.5967143 35.5335351 23.5967143 -5.88821237 -5.95542857 -5.88821237"></polygon>
                    </g>
                    <g id="Group-168" transform="translate(347.000000, 78.000000)">
                        <mask id="mask-58" fill="white">
                            <use xlink:href="#path-57"></use>
                        </mask>
                        <g id="Clip-167"></g>
                        <polygon id="Fill-166" fill="#FFFFFF" mask="url(#mask-58)" points="-6.0046 71.5748604 13.0942 71.5748604 13.0942 -5.49679245 -6.0046 -5.49679245"></polygon>
                    </g>
                    <g id="Group-171" transform="translate(181.000000, 152.000000)">
                        <mask id="mask-60" fill="white">
                            <use xlink:href="#path-59"></use>
                        </mask>
                        <g id="Clip-170"></g>
                        <polygon id="Fill-169" fill="#352BBD" mask="url(#mask-60)" points="-2.88231373 5.311 69.4435294 5.311 69.4435294 -3.046 -2.88231373 -3.046"></polygon>
                    </g>
                    <g id="Group-174" transform="translate(251.000000, 152.000000)">
                        <mask id="mask-62" fill="white">
                            <use xlink:href="#path-61"></use>
                        </mask>
                        <g id="Clip-173"></g>
                        <polygon id="Fill-172" fill="#F8F7FF" mask="url(#mask-62)" points="-4.40144186 6.027 178.499791 6.027 178.499791 -3.814 -4.40144186 -3.814"></polygon>
                    </g>
                    <g id="Group-177" transform="translate(237.000000, 153.000000)">
                        <mask id="mask-64" fill="white">
                            <use xlink:href="#path-63"></use>
                        </mask>
                        <g id="Clip-176"></g>
                        <polygon id="Fill-175" fill="#352BBD" mask="url(#mask-64)" points="-5.73619632 4 192.736196 4 192.736196 -2 -5.73619632 -2"></polygon>
                    </g>
                    <g id="Group-180" transform="translate(447.000000, 152.000000)">
                        <mask id="mask-66" fill="white">
                            <use xlink:href="#path-65"></use>
                        </mask>
                        <g id="Clip-179"></g>
                        <polygon id="Fill-178" fill="#F8F7FF" mask="url(#mask-66)" points="-4.88547059 6.027 51.198 6.027 51.198 -3.814 -4.88547059 -3.814"></polygon>
                    </g>
                    <g id="Group-183" transform="translate(447.000000, 152.000000)">
                        <mask id="mask-68" fill="white">
                            <use xlink:href="#path-67"></use>
                        </mask>
                        <g id="Clip-182"></g>
                        <polygon id="Fill-181" fill="#352BBD" mask="url(#mask-68)" points="-4.88547059 6.719 51.198 6.719 51.198 -4.505 -4.88547059 -4.505"></polygon>
                    </g>
                    <g id="Group-186" transform="translate(431.000000, 152.000000)">
                        <mask id="mask-70" fill="white">
                            <use xlink:href="#path-69"></use>
                        </mask>
                        <g id="Clip-185"></g>
                        <polygon id="Fill-184" fill="#F8F7FF" mask="url(#mask-70)" points="-5.682 6.027 14.661 6.027 14.661 -3.814 -5.682 -3.814"></polygon>
                    </g>
                    <g id="Group-189" transform="translate(431.000000, 152.000000)">
                        <mask id="mask-72" fill="white">
                            <use xlink:href="#path-71"></use>
                        </mask>
                        <g id="Clip-188"></g>
                        <polygon id="Fill-187" fill="#352BBD" mask="url(#mask-72)" points="-5.6805 6.719 14.661 6.719 14.661 -4.505 -5.6805 -4.505"></polygon>
                    </g>
                    <g id="Group-192" transform="translate(484.000000, 324.000000)">
                        <mask id="mask-74" fill="white">
                            <use xlink:href="#path-73"></use>
                        </mask>
                        <g id="Clip-191"></g>
                        <polygon id="Fill-190" fill="#F8F7FF" mask="url(#mask-74)" points="-6.6204142 6.181 21.579142 6.181 21.579142 -3.819 -6.6204142 -3.819"></polygon>
                    </g>
                </g>
                <g id="Group-21-Copy-2" transform="translate(178.500000, 58.500000) scale(-1, 1) translate(-178.500000, -58.500000) translate(101.000000, 15.000000)">
                    <path d="M10.5841689,84.5460123 L132.915567,84.5460123 C143.704851,84.5460123 152.483256,75.9852761 152.483256,65.4650307 L152.483256,21.5349693 C152.483256,11.0134969 143.704851,2.45398773 132.915567,2.45398773 L39.1316014,2.45398773 C28.3398011,2.45398773 19.5626548,11.0134969 19.5626548,21.5349693 L19.5626548,67.2147239 C19.5626548,74.1349693 16.1512076,80.5398773 10.5841689,84.5460123 M132.915567,87 L0,87 L5.42106759,84.6515337 C12.4830526,81.592638 17.0459103,74.7484663 17.0459103,67.2147239 L17.0459103,21.5349693 C17.0459103,9.6601227 26.9530749,0 39.1316014,0 L132.915567,0 C145.092835,0 155,9.6601227 155,21.5349693 L155,65.4650307 C155,77.3398773 145.092835,87 132.915567,87" id="Fill-19" fill="#FF809F"></path>
                    <path d="M10.5841689,84.5460123 L132.915567,84.5460123 C143.704851,84.5460123 152.483256,75.9852761 152.483256,65.4650307 L152.483256,21.5349693 C152.483256,11.0134969 143.704851,2.45398773 132.915567,2.45398773 L39.1316014,2.45398773 C28.3398011,2.45398773 19.5626548,11.0134969 19.5626548,21.5349693 L19.5626548,67.2147239 C19.5626548,74.1349693 16.1512076,80.5398773 10.5841689,84.5460123 Z M132.915567,87 L0,87 L5.42106759,84.6515337 C12.4830526,81.592638 17.0459103,74.7484663 17.0459103,67.2147239 L17.0459103,21.5349693 C17.0459103,9.6601227 26.9530749,0 39.1316014,0 L132.915567,0 C145.092835,0 155,9.6601227 155,21.5349693 L155,65.4650307 C155,77.3398773 145.092835,87 132.915567,87 Z" id="Stroke-20" stroke="#FF809F" stroke-width="0.25"></path>
                    <path d="M126.316068,32 L42.6826757,32 C40.1063243,32 38,29.7498994 38,26.9993291 C38,24.2501006 40.1063243,22 42.6826757,22 L126.316068,22 C128.892419,22 131,24.2501006 131,26.9993291 C131,29.7498994 128.892419,32 126.316068,32" id="Fill-106" fill="#FF809F"></path>
                    <path d="M126.316068,49 L42.6826757,49 C40.1063243,49 38,46.7498994 38,43.9993291 C38,41.2501006 40.1063243,39 42.6826757,39 L126.316068,39 C128.892419,39 131,41.2501006 131,43.9993291 C131,46.7498994 128.892419,49 126.316068,49" id="Fill-107" fill="#FF809F"></path>
                    <path d="M97.2575993,66 L43.7411282,66 C41.1338894,66 39,63.7488597 39,61 C39,58.2511403 41.1338894,56 43.7411282,56 L97.2575993,56 C99.8661106,56 102,58.2511403 102,61 C102,63.7488597 99.8661106,66 97.2575993,66" id="Fill-108" fill="#FF809F"></path>
                </g>
            </g>
        </g>
    </g>
</svg>